<svg xmlns="http://www.w3.org/2000/svg" xmlns:xlink="http://www.w3.org/1999/xlink" version="1.1"
  x="0px" y="0px" viewBox="0 0 64 64" style="enable-background:new 0 0 64 64;" xml:space="preserve"><path d="M59.6,53L45.3,38.7c6-9.1,4.8-21.1-3-28.9c-4.6-4.6-11-7.1-17.6-6.7C18.1,3.4,12.2,6.5,8,11.7c-6.8,8.5-6.6,20.6,0.3,29  c7.5,9,20.7,11,30.4,4.6L53,59.6c0.9,0.9,2.1,1.4,3.3,1.4c1.2,0,2.4-0.5,3.3-1.4c0.9-0.9,1.4-2.1,1.4-3.3S60.5,53.9,59.6,53z   M37.1,37.1c-3.1,3.1-7.1,4.6-11.1,4.6c-4,0-8-1.5-11.1-4.6c-3-3-4.6-6.9-4.6-11.1c0-4.2,1.6-8.1,4.6-11.1c6.1-6.1,16.1-6.1,22.2,0  c3,3,4.6,6.9,4.6,11.1C41.7,30.2,40.1,34.2,37.1,37.1z"/></svg>